Coordinates
version=1
nRows=19
nColumns=36
inDegrees=yes

Units are S.I. units (second, meters, Newtons, ...)
If the header above contains a line with 'inDegrees', this indicates whether rotational values are in degrees (yes) or radians (no).

endheader
time	pelvis_tilt	pelvis_list	pelvis_rotation	pelvis_tx	pelvis_ty	pelvis_tz	hip_flexion_r	hip_adduction_r	hip_rotation_r	knee_angle_r	knee_angle_r_beta	ankle_angle_r	subtalar_angle_r	mtp_angle_r	hip_flexion_l	hip_adduction_l	hip_rotation_l	knee_angle_l	knee_angle_l_beta	ankle_angle_l	subtalar_angle_l	mtp_angle_l	lumbar_extension	lumbar_bending	lumbar_rotation	arm_flex_r	arm_add_r	arm_rot_r	elbow_flex_r	pro_sup_r	arm_flex_l	arm_add_l	arm_rot_l	elbow_flex_l	pro_sup_l
      0.68000000	      0.31850862	      2.51575084	      1.95024560	      0.72665089	      1.00850036	     -0.29875267	    -10.66722746	     -3.50212576	     -9.59223165	     38.57854717	      0.67332267	     -7.15258421	    -10.85975322	     -6.55475192	     24.14317073	      4.89600537	     -0.06488555	     20.65503252	      0.36049832	     -3.91665279	     -0.39536203	     -6.55475192	    -10.43117120	     -3.49273084	      6.97794058	      0.63439474	     -7.41756836	    -13.10357455	     43.80240731	    108.93621909	     -9.20882152	     -8.61872883	     -6.24046743	     30.78977301	    109.25012667
      0.69000000	      0.47081952	      2.86689228	      2.04899735	      0.74037256	      1.01029966	     -0.30085682	     -8.70989353	     -4.47299269	     -9.68831749	     42.94845284	      0.74959191	    -10.45572647	    -12.35008401	     -6.58090170	     23.39405882	      5.48957902	      0.22489000	     21.30213180	      0.37179234	     -3.01845742	     -0.91626072	     -6.58090170	    -10.67349779	     -3.91562068	      6.40502992	      0.47734179	     -7.05166486	    -13.35578918	     43.34767311	    108.99000836	     -8.73956850	     -8.48876700	     -5.79582109	     31.36636265	    109.22007328
      0.70000000	      0.75552408	      3.29839264	      2.01839561	      0.75392523	      1.01225221	     -0.30272989	     -6.82069493	     -5.55685646	     -9.63078825	     47.22468384	      0.82422622	    -13.25635711	    -13.03220523	     -6.59086069	     22.34981370	      6.10945826	      0.42618730	     21.67112652	      0.37823251	     -1.92770533	     -1.24913673	     -6.59086069	    -11.08113665	     -4.41370270	      5.88001098	      0.35327671	     -6.72614226	    -13.48685148	     42.97675641	    108.99943438	     -8.17062424	     -8.35124211	     -5.48032516	     31.90044660	    109.23687696
      0.71000000	      0.76367334	      3.46394563	      1.90557728	      0.76704817	      1.01374206	     -0.30403771	     -4.49956805	     -6.16304260	     -9.18284990	     51.28433288	      0.89508046	    -17.20406648	    -15.76482710	     -6.62310148	     21.66413267	      6.36973968	      0.49598029	     22.07537765	      0.38528802	     -1.21958411	     -1.59273947	     -6.62310148	    -11.16929728	     -4.67646723	      5.51142980	      0.25162311	     -6.41225955	    -13.70849759	     42.46235108	    109.10106964	     -7.60551138	     -8.25715973	     -4.95804637	     32.55470635	    109.10264497
      0.72000000	      0.84051602	      3.72127610	      1.65797796	      0.78004804	      1.01531496	     -0.30516186	     -2.20707750	     -6.90206935	     -8.70862689	     55.17994193	      0.96307167	    -19.86922529	    -17.17707305	     -6.64837670	     20.76523586	      6.66694268	      0.35942966	     22.19470774	      0.38737073	     -0.34445117	     -1.68416802	     -6.64837670	    -11.33319927	     -5.01678871	      5.20160326	      0.17691470	     -6.15232357	    -13.81997685	     42.00197776	    109.16569945	     -6.98183470	     -8.15922400	     -4.47881105	     33.17496313	    108.99393570
      0.73000000	      1.02747365	      3.99659870	      1.32743269	      0.79297890	      1.01712095	     -0.30606590	     -0.04504332	     -7.61367883	     -8.15885795	     58.76973403	      1.02572536	    -21.56039356	    -17.81512709	     -6.65794558	     19.61378025	      6.96646574	      0.18830674	     22.05797880	      0.38498436	      0.63551774	     -1.76521862	     -6.65794558	    -11.60260999	     -5.37772068	      4.96333742	      0.10866829	     -5.95712325	    -13.82914325	     41.56671332	    109.17152200	     -6.24844187	     -8.03454139	     -4.13746777	     33.71749897	    108.98146574
      0.74000000	      1.10519327	      4.15163340	      0.95257510	      0.80563498	      1.01882419	     -0.30669847	      2.26528208	     -8.07948907	     -7.51694463	     62.06725970	      1.08327804	    -22.75159468	    -18.80009485	     -6.66668944	     18.58503067	      7.10679445	     -0.06353236	     21.88358958	      0.38194069	      1.45000639	     -1.73160111	     -6.66668944	    -11.76363731	     -5.61356273	      4.73663782	      0.07970852	     -5.78810992	    -13.80523628	     41.07278119	    109.16812931	     -5.49465626	     -7.96865530	     -3.72077782	     34.25996000	    108.97116535
      0.75000000	      1.09778880	      4.19938066	      0.63744912	      0.81811018	      1.02047652	     -0.30722449	      4.62099446	     -8.33666942	     -6.96734016	     65.01222423	      1.13467737	    -23.36802884	    -19.97562646	     -6.67850911	     17.64990275	      7.12036744	     -0.38777217	     21.67729600	      0.37834019	      2.15573000	     -1.48184347	     -6.67850911	    -11.78231585	     -5.71824485	      4.50510583	      0.03977545	     -5.66802195	    -13.71387324	     40.50002067	    109.16323006	     -4.69123265	     -7.93207174	     -3.13336938	     34.75865284	    108.92263916
      0.76000000	      1.20914291	      4.17506137	      0.36107457	      0.83051272	      1.02248820	     -0.30776647	      6.75358231	     -8.44443210	     -6.49530891	     67.54701895	      1.17891788	    -23.07032174	    -20.77566072	     -6.68665897	     16.49148237	      7.07999483	     -0.63369867	     21.28989553	      0.37157877	      2.90143675	     -1.25434690	     -6.68665897	    -11.95974351	     -5.71632384	      4.20542355	      0.03626790	     -5.57404265	    -13.62218091	     39.99162747	    109.14767442	     -3.80428464	     -7.86205239	     -2.63360683	     35.17000187	    108.89624922
      0.77000000	      1.22441704	      4.14877233	      0.15262228	      0.84276630	      1.02439631	     -0.30831155	      8.94904002	     -8.51058272	     -6.11279471	     69.79725874	      1.21819197	    -21.95552255	    -21.16720157	     -6.69945653	     15.46640497	      7.03113474	     -0.92794466	     20.92030742	      0.36512824	      3.55882426	     -0.72164824	     -6.69945653	    -12.00887494	     -5.69947773	      3.86595809	      0.02080414	     -5.50303236	    -13.48442855	     39.38317843	    109.12483137	     -2.88510912	     -7.89145718	     -1.84385675	     35.55013632	    108.82860827
      0.78000000	      1.38693232	      3.98459709	     -0.00312240	      0.85499603	      1.02667657	     -0.30887591	     10.85613966	     -8.32258460	     -5.78475335	     71.57376916	      1.24919793	    -20.64902304	    -21.51969664	     -6.70562326	     14.18209671	      6.87925015	     -1.00215242	     20.36925845	      0.35551063	      4.13245034	     -0.42193128	     -6.70562326	    -12.23271613	     -5.50184139	      3.43986708	      0.03256567	     -5.43543327	    -13.44308246	     38.94977021	    109.10104914	     -1.93159048	     -7.84917555	     -1.38756325	     35.90056916	    108.81894860
      0.79000000	      1.42981394	      3.96556984	     -0.04987566	      0.86728070	      1.02871510	     -0.30971206	     12.83970551	     -8.39509863	     -5.59818351	     73.18096348	      1.27724876	    -17.39711950	    -19.60348485	     -6.73318245	     13.06701066	      6.86474097	     -1.33278332	     19.85289451	      0.34649838	      4.83225783	      0.46972709	     -6.73318245	    -12.26248180	     -5.42558244	      3.04071591	     -0.05518686	     -5.42718963	    -13.33288429	     38.34583884	    109.06902648	     -0.86687532	     -8.02413044	      0.08203080	     36.10154851	    108.61962370
      0.80000000	      1.58886687	      3.85965936	     -0.03754049	      0.87953410	      1.03099687	     -0.31058639	     14.56522774	     -8.29446141	     -5.49724853	     74.30471660	      1.29686195	    -15.22945583	    -18.62753032	     -6.76102460	     11.73743723	      6.82824787	     -1.29546355	     19.16500462	      0.33449243	      5.26268832	      0.81781761	     -6.76102460	    -12.45662484	     -5.23574219	      2.57567989	     -0.17682418	     -5.38345313	    -13.47020548	     38.00183814	    109.04231794	      0.19837308	     -8.05102148	      0.87571673	     36.39988649	    108.41003163
      0.81000000	      1.71605621	      3.71822801	      0.04473521	      0.89177724	      1.03319347	     -0.31148968	     16.23116375	     -8.11327203	     -5.50055058	     75.04985924	      1.30986715	    -14.06897489	    -18.44131260	     -6.76951602	     10.42637523	      6.77323825	     -1.11325525	     18.43314440	      0.32171906	      5.64827874	      1.09256438	     -6.76951602	    -12.59171247	     -5.00817301	      1.99402628	     -0.29471054	     -5.35300603	    -13.53756413	     37.66680298	    109.02678366	      1.16519249	     -8.02578194	      1.23215638	     36.82028242	    108.41402520
      0.82000000	      1.89656970	      3.61672303	      0.22037425	      0.90393257	      1.03534002	     -0.31253953	     17.74883099	     -8.01792020	     -5.58037218	     75.54065868	      1.31843321	    -12.23690939	    -16.90435767	     -6.78805850	      9.07649294	      6.77599777	     -0.85597369	     17.72785128	      0.30940937	      5.95997317	      1.40284212	     -6.78805850	    -12.82303307	     -4.78355070	      1.30741104	     -0.40104495	     -5.31001577	    -13.62760206	     37.39143088	    109.03997735	      2.16289492	     -8.12176482	      1.97555063	     37.21491615	    108.41821721
      0.83000000	      1.90840286	      3.37810274	      0.41775833	      0.91598248	      1.03718514	     -0.31355878	     19.36431545	     -7.70980035	     -5.73368254	     75.62026135	      1.31982254	    -11.70985247	    -16.63968181	     -6.79335644	      7.93826699	      6.61711758	     -0.59177574	     17.04276856	      0.29745243	      6.21209628	      1.61412696	     -6.79335644	    -12.84175058	     -4.40570635	      0.67853741	     -0.60334910	     -5.35225562	    -13.71234032	     37.23378371	    109.03775474	      3.12544846	     -8.09073154	      2.18138405	     37.65813170	    108.45692841
      0.84000000	      1.95542976	      3.23895323	      0.66612633	      0.92770727	      1.03880855	     -0.31451685	     20.89377285	     -7.54864226	     -5.99636686	     75.46760856	      1.31715825	    -11.53275354	    -16.55136841	     -6.79448745	      6.97537095	      6.51325756	     -0.71942453	     16.72521275	      0.29191003	      6.34437317	      1.65088723	     -6.79448745	    -12.98603998	     -4.14803668	     -0.00729815	     -0.74562494	     -5.37171731	    -13.75164265	     37.13652099	    109.03246930	      4.20145922	     -8.07015185	      2.24689454	     38.06739510	    108.49540711
      0.85000000	      2.12614452	      3.10327545	      0.98828199	      0.93979774	      1.04055700	     -0.31579353	     22.09730146	     -7.45169253	     -6.29604117	     75.02939839	      1.30951004	     -9.87655255	    -14.88789419	     -6.81612730	      5.42786963	      6.53712678	      0.23940733	     15.61279080	      0.27249460	      6.74939183	      1.98392785	     -6.81612730	    -13.17845541	     -3.82086548	     -0.70887320	     -0.96690452	     -5.39128984	    -14.16355416	     37.05693329	    109.08089511	      5.12455460	     -8.20711391	      3.00979058	     38.72175979	    108.62442208
      0.86000000	      2.05631122	      2.94891772	      1.25395291	      0.95152898	      1.04170070	     -0.31673691	     23.55600467	     -7.25261443	     -6.57851759	     74.30320504	      1.29683557	     -9.55855722	    -14.73482727	     -6.82160678	      4.41712903	      6.44225040	      0.59232155	     14.96036168	      0.26110757	      6.99753596	      2.21057256	     -6.82160678	    -13.14657171	     -3.53181842	     -1.32341463	     -1.19336277	     -5.44832942	    -14.30678583	     36.98679918	    109.08769098	      6.12231463	     -8.21260012	      3.14275110	     39.25080505	    108.68535935
